/* XPM */
static char *_92833ba55364dc6c79805f6f52d69e8qKnLj3NxB0cWdecs[] = {
/* columns rows colors chars-per-pixel */
"64 64 9 1 ",
"  c black",
". c #4782C9",
"X c #83A4D6",
"o c #84A4D7",
"O c #86A3D8",
"+ c #89A2DA",
"@ c #A495EC",
"# c #BDC0C9",
"$ c white",
/* pixels */
"OOOOOOOOOOOOOOOOOOOOOOOOOOOOOOOOOOOOOOOOOOOOOOOOOOOOOOOOOOOOOOOO",
"OOOOOOOOOOOOOOOOOOOOOOOOOOOOOOOOOOOOOOOOOOOOOOOOOOOOOOOOOOOOOOOO",
"OOOOOOOOOOOOOOOOOOOOOOO                  OOOOOOOOOOOOOOOOOOOOOOO",
"OOOOOOOOOOOOOOOOOOOOOOO                  OOOOOOOOOOOOOOOOOOOOOOO",
"OOOOOOOOOOOOOOOOOOOO   $$$$$$$$$$$$$$$$$$     OOOOOOOOOOOOOOOOOO",
"OOOOOOOOOOOOOOOOOOOO   $$$$$$$$$$$$$$$$$$     OOOOOOOOOOOOOOOOOO",
"OOOOOOOOOOOOOOOOO   $$$$$$$$$$$$$$$$$$$$$$$$$$  OOOOOOOOOOOOOOOO",
"OOOOOOOOOOOOOOOOO   $$$$$$$$$$$$$$$$$$$$$$$$$$  OOOOOOOOOOOOOOOO",
"OOOOOOOOOOOOOOOOO   $$$$$$$$$$$$$$$$$$$$$$$$$$  OOOOOOOOOOOOOOOO",
"OOOOOOOOOOOOOOO  $$$$$$$$$$$$$$$$$$$$$$$$$$$$$$$  OOOOOOOOOOOOOO",
"OOOOOOOOOOOOOOO  $$$$$$$$$$$$$$$$$$$$$$$$$$$$$$$  OOOOOOOOOOOOOO",
"OOOOOOOOOOOOOOO  $$$$$     $$$$$$$$$$$     $$$$$  OOOOOOOOOOOOOO",
"OOOOOOOOOOOOOOO  $$$$$     $$$$$$$$$$$     $$$$$  OOOOOOOOOOOOOO",
"OOOOOOOOOOOOOOO  $$$$$     $$$$$$$$$$$     $$$$$  OOOOOOOOOOOOOO",
"OOOOOOOOOOOOOOO  $$$$$     $$$$$$$$$$$     $$$$$  OOOOOOOOOOOOOO",
"OOOOOOOOOOOOOOO  $$$$$     $$$$$$$$$$$     $$$$$  OOOOOOOOOOOOOO",
"OOOOOOOOOOOOOOO  $$$$$     $$$$   $$$$     $$$$$  OOOOOOOOOOOOOO",
"OOOOOOOOOOOOOOO  $$$$$     $$$$   $$$$     $$$$$  OOOOOOOOOOOOOO",
"OOOOOOOOOOOOOOOOO   $$$$$$$$$       $$$$$$$$$$  OOOOOOOOOOOOOOOO",
"OOOOOOOOOOOOOOOOO   $$$$$$$$$       $$$$$$$$$$  OOOOOOOOOOOOOOOO",
"OOOOOOOOOOOOOOO     $$ $$$$$$$$$$$$$$$$$$  $$$    OOOOOOOOOOOOOO",
"OOOOOOOOOOOOOOO     $$ $$$$$$$$$$$$$$$$$$  $$$    OOOOOOOOOOOOOO",
"OOOOOOOOOOOOOOO  $$$$$                     $$$$$  OOOOOOOOOOOOOO",
"OOOOOOOOOOOOOOO  $$$$$                     $$$$$  OOOOOOOOOOOOOO",
"OOOOOOOOOOOOOOO  $$$$$$  $$  $$   $$  $  $$$$$$$  OOOOOOOOOOOOOO",
"OOOOOOOOOOOOOOOOO     $$$              $$$$     OOOOOOOOOOOOOOOO",
"OOOOOOOOOOOOOOOOO     $$$              $$$$     OOOOOOOOOOOOOOOO",
"OOOOOOOOOOOOOOOOO     $$$              $$$$     OOOOOOOOOOOOOOOO",
"OOOOOOOOOOOOOOO          $$$$$$$$$$$$$$           OOOOOOOOOOOOOO",
"OOOOOOOOOOOOOOO          $$$$$$$$$$$$$$           OOOOOOOOOOOOOO",
"OOOOOOOOOOOOO  ..                               ..  OOOOOOOOOOOO",
"OOOOOOOOOOOOO  ..                               ..  OOOOOOOOOOOO",
"OOOOOOOOOOO    ..   ###  $$$$$$   $$$$$  #####  ..   OOOOOOOOOOO",
"OOOOOOOOOOO    ..   ###  $$$$$$   $$$$$  #####  ..   OOOOOOOOOOO",
"OOOOOOOOOOO  .......  ###      $$$     ####   ...... OOOOOOOOOOO",
"OOOOOOOOOOO  .......  ###      $$$     ####   ...... OOOOOOOOOOO",
"OOOOOOOOO  ....     ..     $$$$   $$$$     ...    ...  OOOOOOOOO",
"OOOOOOOOO  ....     ..     $$$$   $$$$     ...    ...  OOOOOOOOO",
"OOOOOOOOO  .........  ...  $$$$$$$$$$$ ....   .......  OOOOOOOOO",
"OOOOOOOOO  .........  ...  $$$$$$$$$$$ ....   .......  OOOOOOOOO",
"OOOOOOOOO  ........... ..    $$$$$$$   ..  ..........  OOOOOOOOO",
"OOOOOOOOO  ........... ..    $$$$$$$   ..  ..........  OOOOOOOOO",
"OOOOOOOOOOO  .......  ...  $$$$$$$$$$$ ....   ...... OOOOOOOOOOO",
"OOOOOOOOOOO  .......  ...  $$$$$$$$$$$ ....   ...... OOOOOOOOOOO",
"OOOOOOOOOOOOO    ...  ...              ....   ..    OOOOOOOOOOOO",
"OOOOOOOOOOOOO    ...  ...              ....   ..    OOOOOOOOOOOO",
"OOOOOOOOOOOOOOO       ...              ....       OOOOOOOOOOOOOO",
"OOOOOOOOOOOOOOO       ...              ....       OOOOOOOOOOOOOO",
"OOOOOOOOOOOOOOOOO                               OOOOOOOOOOOOOOOO",
"OOOOOOOOOOOOOOOOO                               OOOOOOOOOOOOOOOO",
"OOOOOOOOOOOOOOO                                   OOOOOOOOOOOOOO",
"OOOOOOOOOOOOOOO                                   OOOOOOOOOOOOOO",
"OOOOOOOOOOOOOOO                                   OOOOOOOOOOOOOO",
"OOOOOOOOOOOOOOO                OOO                OOOOOOOOOOOOOO",
"OOOOOOOOOOOOOOOOO            OOOOOOO            OOOOOOOOOOOOOOOO",
"OOOOOOOOOOOOOOOOO            OOOOOOO            OOOOOOOOOOOOOOOO",
"OOOOOOOOOOOOO       $$$$$$$  OOOOOOO  $$$$$$$$      OOOOOOOOOOOO",
"OOOOOOOOOOOOO       $$$$$$$  OOOOOOO  $$$$$$$$      OOOOOOOOOOOO",
"OOOOOOOOOOOOO  $$$$$$$$$$    OOOOOOO   $$$$$$$$$$$  OOOOOOOOOOOO",
"OOOOOOOOOOOOO  $$$$$$$$$$    OOOOOOO   $$$$$$$$$$$  OOOOOOOOOOOO",
"OOOOOOOOOOOOOOO          OOOOOOOOOOOOOO           OOOOOOOOOOOOOO",
"OOOOOOOOOOOOOOO          OOOOOOOOOOOOOO           OOOOOOOOOOOOOO",
"OOOOOOOOXXXXXXXXXXXXXOOOOOOOOOOOOOOOOOOOXXXXXXXXXXOOOOOOOOOOOOOO",
"OOOOOOOOXooooooOOOOOO+++OOOOOOOOOOOOOOO@OOOOOOOOOOOOOOOOOOOOOOOO"
};
