/* XPM */
static char *_3ca10c916b74dd6bc2ff3ca37977ae0yEPd4rlxudtJNCjf[] = {
/* columns rows colors chars-per-pixel */
"64 64 7 1 ",
"  c black",
". c #FFF200",
"X c #9BFD71",
"o c #85A3D8",
"O c #89A2DA",
"+ c #FEFFDF",
"@ c #FAFEFE",
/* pixels */
"oooooooooooooooooooooooooooooooooooooooooooooooooooooooooooooooo",
"oooooooooooooooooooooooooooooooooooooooooooooooooooooooooooooooo",
"oooooooooooooooooooooooooooooooooooooooooooooooooooooooooooooooo",
"oooooooooooooooooooooooooooooooooooooooooooooooooooooooooooooooo",
"oooooooooooooooooooooooooooooooooooooooooooooooooooooooooooooooo",
"oooooooooooooooooooooooooooooooooooooooooooooooooooooooooooooooo",
"oooooooooooooooooooooooooooooooooooooooooooooooooooooooooooooooo",
"ooooooooOOOOOOOOOOOOOOOOOOOOOOOOOOOOOOOOOOOOOOOOOOOOOOOOoooooooo",
"oooooooooooooooooooooooooooooooooooooooooooooooooooooooooooooooo",
"oooooooooooooooooooooooooooooooooooooooooooooooooooooooooooooooo",
"oooooooooooooooooooooooooooooooooooooooooooooooooooooooooooooooo",
"oooooooooooooooooooooooooooooooooooooooooooooooooooooooooooooooo",
"oooooooooooooooooooooooooooooooooooooooooooooooooooooooooooooooo",
"oooooooooooooooooooooooooooooooooooooooooooooooooooooooooooooooo",
"oooooooooooooooooooooooooooooooooooooooooooooooooooooooooooooooo",
"oooooooooooooooooooooooo      ooooo      ooooooooooooooooooooooo",
"oooooooooooooooooooooooo      ooooo      ooooooooooooooooooooooo",
"oooooooooooooooooooooo  ......     ......  ooooooooooooooooooooo",
"oooooooooooooooooooooo  ......     ......  ooooooooooooooooooooo",
"oooooooooooooooooooo  ....    +++++    ....  ooooooooooooooooooo",
"oooooooooooooooooooo  ....    +++++    ....  ooooooooooooooooooo",
"oooooooooooooooo          ++@@@@@@@@@@@          ooooooooooooooo",
"oooooooooooooooo          ++@@@@@@@@@@@          ooooooooooooooo",
"oooooooooooooo  ......  ++++@@  @  @@@@++  ......  ooooooooooooo",
"oooooooooooo  ........  ++++@@@@@@@@@@@++  ........  ooooooooooo",
"oooooooooooo  ........  ++++@@@@@@@@@@@++  ........  ooooooooooo",
"oooooooooooooo  ......  ++++  @@@@@  ++++  ......  ooooooooooooo",
"oooooooooooooo  ......  ++++  @@@@@  ++++  ......  ooooooooooooo",
"oooooooooooooooo      ..  ++++     ++++  ..      ooooooooooooooo",
"oooooooooooooooo      ..  ++++     ++++  ..      ooooooooooooooo",
"oooooooooooooooooo  ......  +++++++++  ......  ooooooooooooooooo",
"oooooooooooooooooo  ......  +++++++++  ......  ooooooooooooooooo",
"oooooooooooooooo  ..........         ..........  ooooooooooooooo",
"oooooooooooooooo  ..........         ..........  ooooooooooooooo",
"oooooooooooooooo  ............  X  ............  ooooooooooooooo",
"oooooooooooooooo  ............  X  ............  ooooooooooooooo",
"oooooooooooooooooo  ......      XXX    ......  ooooooooooooooooo",
"oooooooooooooooooo  ......      XXX    ......  ooooooooooooooooo",
"oooooooooooooooooooo      oooo  XXX  oo      ooooooooooooooooooo",
"oooooooooooooooooooo      oooo  XXX  oo      ooooooooooooooooooo",
"oooooooooooooooooooooooooooo  XXX  ooooooooooooooooooooooooooooo",
"oooooooooooooooooooooooooooo  XXX  ooooooooooooooooooooooooooooo",
"oooooooooooooooooooooooooooo  XX ooooooooooooooooooooooooooooooo",
"oooooooooooooooooooooooooooo  XX ooooooooooooooooooooooooooooooo",
"oooooooooooooooooooooooooooo  XXX  ooooooooooooooooooooooooooooo",
"oooooooooooooooooooooooooooo  XXX  ooooooooooooooooooooooooooooo",
"oooooooooooooooooooooooooooooo  X  ooooooooooooooooooooooooooooo",
"oooooooooooooooooooooooooooooo  XXX  ooooooooooooooooooooooooooo",
"oooooooooooooooooooooooooooooo  XXX  ooooooooooooooooooooooooooo",
"oooooooooooooooooooooooooooooo  XXX  ooooooooooooooooooooooooooo",
"oooooooooooooooooooooooooooooo  XXX  ooooooooooooooooooooooooooo",
"oooooooooooooooooooooooooooo  XXXXX  ooooooooooooooooooooooooooo",
"oooooooooooooooooooooooooooo  XXXXX  ooooooooooooooooooooooooooo",
"oooooooooooooooooooooooooooooo     ooooooooooooooooooooooooooooo",
"oooooooooooooooooooooooooooooo     ooooooooooooooooooooooooooooo",
"oooooooooooooooooooooooooooooooooooooooooooooooooooooooooooooooo",
"oooooooooooooooooooooooooooooooooooooooooooooooooooooooooooooooo",
"oooooooooooooooooooooooooooooooooooooooooooooooooooooooooooooooo",
"oooooooooooooooooooooooooooooooooooooooooooooooooooooooooooooooo",
"oooooooooooooooooooooooooooooooooooooooooooooooooooooooooooooooo",
"oooooooooooooooooooooooooooooooooooooooooooooooooooooooooooooooo",
"oooooooooooooooooooooooooooooooooooooooooooooooooooooooooooooooo",
"oooooooooooooooooooooooooooooooooooooooooooooooooooooooooooooooo",
"oooooooooooooooooooooooooooooooooooooooooooooooooooooooooooooooo"
};
