/* XPM */
static char *_43b2134a41c42e68cfa5fb8b6e9c38dxiSGhJ1Asd0Ll3N2[] = {
/* columns rows colors chars-per-pixel */
"64 64 5 1 ",
"  c black",
". c #14141D",
"X c #2C2E3F",
"o c #7281B1",
"O c #85A3D8",
/* pixels */
"OOOOOOOOOOOOOOOOOOOOOOOOOOOOOOOOOOOOOOOOOOOOOOOOOOOOOOOOOOOOOOOO",
"OOOOOOOOOOOOOOOOOOOOOOOOOOOOOOOOOOOOOOOOOOOOOOOOOOOOOOOOOOOOOOOO",
"OOOOOOOOOOOOOOOOOOOOOoooOOOOOOOoOooOOOOOoOoooOOOOOOOOOOOOOOOOOOO",
"OOOOOOOOOOOOOOOoOoOooXXooooooXoooooooooXooXooooOoOOOOOOOOOOOOOOO",
"OOOOOOOOOOOOOOOOoXooXooXXoooooXXXXooooXoXXoXooXoOOOOOOOOOOOOOOOO",
"OOOOOOOOOOOoOOOoXooXo.XXXXXXXX.XXXXXXXX.XX.oXooXoOOOoOOOOOOOOOOO",
"OOOOOOOoOOOOoOOoXXXX.XXXXXXXXX.XXXXXXXX.XXX.XXXXoOOoOOOOoOOOOOOO",
"OOOOOOOOoOOooooXXXXX.XXXXXXXXXX.XXXXXX.XXXX.XXXXXooooOOoOOOOOOOO",
"OOOOOOoXooooXooXXXXX.XXXXX.XXXXX.XXXX.XXXXX.XXXXXooXooooXoOOOOOO",
"OOOOOOOOXXoXXoXXXXXX.XXXXXX.XXXX.XXXX.XXXXX.XXXXXXoXXoXXOOOOOOOO",
"OOOOOOOOooXXoXX.XXXX.XXXXXX.XXXX.XXX.XXXXXX.XXXX.XXoXXooOOOOOOOO",
"OOOOOOOOoooXXXX.XXX.XXXX.XX.XXXX.XX.XXXXXXXX.XXX.XXXXoooOOOOOOOO",
"OOOOOOOooXoXXXX..XX.XXXXX.X..XX.X.X.XXXXXXXX.XX..XXXXoXooOOOOOOO",
"OOOOOOOooXXXXXX.X.X XXXXXX......XX.XXXXXX.XX X.X.XXXXXXooOOOOOOO",
"OOOOOOoooXXXXXX.XX .XXXXXX.....X.X.XXXXX.XXX. XX.XXXXXXoooOOOOOO",
"OOOoOoooXX.XX.X.XX..XXXXX.........X.XXXX.XXX..XX.X.XX.XXoooOoOOO",
"OOOOooXoXX.XXX.XX. ...XX.............XX XX... .XX.XXX.XXoXooOOOO",
"OOOOoooXXXX.X .... ....... .... .... ... .... .... X.XXXXoooOOOO",
"OOOOOoXX.XX.. . ... .. .... .. ...... . .... ... . ..XX.XXoOOOOO",
"OOOOOoXX.. ... ..  . .. ..      ...    .... .  .. ... ..XXoOOOOO",
"OOOOOoXX. ..                                        .. .XXoOOOOO",
"OOOOOoX.                                                .XoOOOOO",
"OOOOOX                                                    XOOOOO",
"OOOOoo                                                    ooOOOO",
"OOOOoo                                                    ooOOOO",
"OOOOoo                                                    ooOOOO",
"OOOOoo                                                    ooOOOO",
"OOOOoX                                                    XoOOOO",
"OOOOoX                                                    XoOOOO",
"OOOOOX                                                    XOOOOO",
"OOOOOX                                                    XOOOOO",
"OOOOOo                                                    oOOOOO",
"OOOOOo                                                    oOOOOO",
"OOOOOo                                                    oOOOOO",
"OOOOOo                                                    oOOOOO",
"OOOOoX                                                    XoOOOO",
"OOOOoX                                                    XoOOOO",
"OOOOOX                                                    XOOOOO",
"OOOOOo                                                    oOOOOO",
"OOOOOo                                                    oOOOOO",
"OOOOOo                                                    oOOOOO",
"OOOOoX                                                    XoOOOO",
"OOOoo                                                     XOOOOO",
"OOOOoX                                                    XOOOOO",
"OOOoOX                                                    XoOOOO",
"OOOOOX                                                    XoXOOO",
"OOOOXX                                                    XXoOOO",
"OOOOO X                                                   XOOOOO",
"OOOOOo                                                    XOOOOO",
"OOOOOO                                                    OOOOOO",
"OOOOOO                                                   XOOOOOO",
"OOOoOOX                                                  XOOOOOO",
"OOOOoOX                                                  XOXOOOO",
"OOOOOXo                                                 XoXOOOOO",
"OOOOOoo                                                X oOXOOOO",
"OOOOOooo                                                ooOOOOOO",
"OOOOooXo                                                oOoOOOOO",
"OOOOoXoXX                                              OOOOoOOOO",
"OOOoOOOoo                                             oXOOOOOOOO",
"OOOOOOOOXoo                                         XOOOOOOOOOOO",
"OOOOOOOoOOOOoXX                                 XXoOOOOOOOOOOOOO",
"OOOOOOOOOOOOOOOOoOOOOOOOoOOOOOOoOoOOOOOOOOOOOOOoOOOOOOOOOOOOOOOO",
"OOOOOOOOOOOOOOOOOOOOOOOOOOOOOOOOOOOOOOOOOOOOOOOOOOOOOOOOOOOOOOOO",
"OOOOOOOOOOOOOOOOOOOOOOOOOOOOOOOOOOOOOOOOOOOOOOOOOOOOOOOOOOOOOOOO"
};
