/* XPM */
static char *_41a616ffdbe4394e3cada9b67b9725bGJbLR4dAZ2TLEyZn[] = {
/* columns rows colors chars-per-pixel */
"64 64 3 1 ",
"  c #2C2E3F",
". c #7281B1",
"X c #85A3D8",
/* pixels */
"XXXXXXXXXXXXXXXXXXXXXXXXXXXXXXXXXXXXXXXXXXXXXXXXXXXXXXXXXXXXXXXX",
"XXXXXXXXXXXXXXXXXXXXXXXXXXXXXXXXXXXXXXXXXXXXXXXXXXXXXXXXXXXXXXXX",
"XXXXXXXXXXXXXXXXXXXXXXXXXXXXXXXXXXXXXXXXXXXXXXXXXXXXXXXXXXXXXXXX",
"XXXXXXXXXXXXXXXXXXXXXXXXXXXXXXXXXXXXXXXXXXXXXXXXXXXXXXXXXXXXXXXX",
"XXXXXXXXXXXXXXXXXXXXXXXXXXXXXXXXXXXXXXXXXXXXXXXXXXXXXXXXXXXXXXXX",
"XXXXXXXXXXXXXXXXXXXXXXXXXXXXXXXXXXXXXXXXXXXXXXXXXXXXXXXXXXXXXXXX",
"XXXXXXXXXXXXXXXXXXXXXXXXXXXXXXXXXXXXXXXXXXXXXXXXXXXXXXXXXXXXXXXX",
"XXXXXXXXXXXXXXXXXXXXXXXXXXXXXXXXXXXXXXXXXXXXXXXXXXXXXXXXXXXXXXXX",
"XXXXXXXXXXXXXXXXXXXXXXXXXXXXXXXXXXXXXXXXXXXXXXXXXXXXXXXXXXXXXXXX",
"XXXXXXXXXXXXXXXXXXXXXXXXXXXXXXXXXXXXXXXXXXXXXXXXXXXXXXXXXXXXXXXX",
"XXXXXXXXXXXXXXXXXXXXXXXXXXXXXXXXXXXXXXXXXXXXXXXXXXXXXXXXXXXXXXXX",
"XXXXXXXXXXXXXXXXXXXXXXXXXXXXXXXXXXXXXXXXXXXXXXXXXXXXXXXXXXXXXXXX",
"XXXXXXXXXXXXXXXXXXXXXXXXXXXXXXXXXXXXXXXXXXXXXXXXXXXXXXXXXXXXXXXX",
"XXXXXXXXXXXXXXXXXXXXXXXXXXXXXXXXXXXXXXXXXXXXXXXXXXXXXXXXXXXXXXXX",
"XXXXXXXXXXXXXXXXXXXXXXXXXXXXXXXXXXXXXXXXXXXXXXXXXXXXXXXXXXXXXXXX",
"XXXXXXXXXXXXXXXXXXXXXXXXXXXXXXXXXX..XXXXXXXXXXXXXXXXXXXXXXXXXXXX",
"XXXXXXXXXXXXXXXXXXXXXXXXXXXXXXXXXXXX...XXXXXXXXXXXXXXXXXXXXXXXXX",
"XXXXXXXXXXXXXXXXXXXXXXXX.XXX.XXXXXXXXXXXX.XXXXXXXXXXXXXXXXXXXXXX",
"XXXXXXXXXXXXXXXXXXX.. XXX ..XXXXX.  XXXX   ..XXXXXXXXXXXXXXXXXXX",
"XXXXXXXXXXXXXXXXXXXX .   .    XXX ..    ... XXXXXXXXXXXXXXXXXXXX",
"XXXXXXXXXXXXXXXXXX. ..........   ........... .XXXXXXXXXXXXXXXXXX",
"XXXXXXXXXXXXXXXXXXX ........................ XXXXXXXXXXXXXXXXXXX",
"XXXXXXXXXXXXXXXXX. .......................... .XXXXXXXXXXXXXXXXX",
"XXXXXXXXXXXXXXXXXX .......................... XXXXXXXXXXXXXXXXXX",
"XXXXXXXXXXXXXXXXXXX ........................ XXXXXXXXXXXXXXXXXXX",
"XXXXXXXXXXXXXXXX.XX ........................ XX.XXXXXXXXXXXXXXXX",
"XXXXXXXXXXXXXXXX.XX ........................ XX.XXXXXXXXXXXXXXXX",
"XXXXXXXXXXXXXXXX.XX ........................ X.X.XXXXXXXXXXXXXXX",
"XXXXXXXXXXXXXXX.XX .......................... XXXXXXXXXXXXXXXXXX",
"XXXXXXXXXXXXXXX.XX .......................... XXXXXXXXXXXXXXXXXX",
"XXXXXXXXXXXXXXXXXX. ........................ .XXXXXXXXXXXXXXXXXX",
"XXXXXXXXXXXXXXXXXXXX ....................... XXXXXXXXXXXXXXXXXXX",
"XXXXXXXXXXXXXXXXXXXX ....................... XXXXXXXXXXXXXXXXXXX",
"XXXXXXXXXXXXXXXXXXXX ...................... XXXXXXXXXXXXXXXXXXXX",
"XXXXXXXXXXXXXXXXXXX ....................... XXXXXXXXXXXXXXXXXXXX",
"XXXXXXXXXXXXXXXXX.X ....................... XX.XXXXXXXXXXXXXXXXX",
"XXXXXXXXXXXXXXXXXX. ........................ .XXXXXXXXXXXXXXXXXX",
"XXXXXXXXXXXXXXXXXX. ........................ .XXXXXXXXXXXXXXXXXX",
"XXXXXXXXXXXXXXXXXX .......................... XXXXXXXXXXXXXXXXXX",
"XXXXXXXXXXXXXXXXX.X ........................ X.XXXXXXXXXXXXXXXXX",
"XXXXXXXXXXXXXXXXXXX ........................ XXXXXXXXXXXXXXXXXXX",
"XXXXXXXXXXXXXXXXXXX ........................ XXXXXXXXXXXXXXXXXXX",
"XXXXXXXXXXXXXXXXXXX ........................ XXXXXXXXXXXXXXXXXXX",
"XXXXXXXXXXXXXXXXXX. ..........   ........... .XXXXXXXXXXXXXXXXXX",
"XXXXXXXXXXXXXXXXXXXX .   .    XXX ..    ... XXXXXXXXXXXXXXXXXXXX",
"XXXXXXXXXXXXXXXXXXX.. XXX ..XXXXX.  XXXX   ..XXXXXXXXXXXXXXXXXXX",
"XXXXXXXXXXXXXXXXXXXXXXXX.XXX.XXXXXXXXXXXX.XXXXXXXXXXXXXXXXXXXXXX",
"XXXXXXXXXXXXXXXXXXXXXXXXXXXXXXXXXXXX...XXXXXXXXXXXXXXXXXXXXXXXXX",
"XXXXXXXXXXXXXXXXXXXXXXXXXXXXXXXXXX..XXXXXXXXXXXXXXXXXXXXXXXXXXXX",
"XXXXXXXXXXXXXXXXXXXXXXXXXXXXXXXXXXXXXXXXXXXXXXXXXXXXXXXXXXXXXXXX",
"XXXXXXXXXXXXXXXXXXXXXXXXXXXXXXXXXXXXXXXXXXXXXXXXXXXXXXXXXXXXXXXX",
"XXXXXXXXXXXXXXXXXXXXXXXXXXXXXXXXXXXXXXXXXXXXXXXXXXXXXXXXXXXXXXXX",
"XXXXXXXXXXXXXXXXXXXXXXXXXXXXXXXXXXXXXXXXXXXXXXXXXXXXXXXXXXXXXXXX",
"XXXXXXXXXXXXXXXXXXXXXXXXXXXXXXXXXXXXXXXXXXXXXXXXXXXXXXXXXXXXXXXX",
"XXXXXXXXXXXXXXXXXXXXXXXXXXXXXXXXXXXXXXXXXXXXXXXXXXXXXXXXXXXXXXXX",
"XXXXXXXXXXXXXXXXXXXXXXXXXXXXXXXXXXXXXXXXXXXXXXXXXXXXXXXXXXXXXXXX",
"XXXXXXXXXXXXXXXXXXXXXXXXXXXXXXXXXXXXXXXXXXXXXXXXXXXXXXXXXXXXXXXX",
"XXXXXXXXXXXXXXXXXXXXXXXXXXXXXXXXXXXXXXXXXXXXXXXXXXXXXXXXXXXXXXXX",
"XXXXXXXXXXXXXXXXXXXXXXXXXXXXXXXXXXXXXXXXXXXXXXXXXXXXXXXXXXXXXXXX",
"XXXXXXXXXXXXXXXXXXXXXXXXXXXXXXXXXXXXXXXXXXXXXXXXXXXXXXXXXXXXXXXX",
"XXXXXXXXXXXXXXXXXXXXXXXXXXXXXXXXXXXXXXXXXXXXXXXXXXXXXXXXXXXXXXXX",
"XXXXXXXXXXXXXXXXXXXXXXXXXXXXXXXXXXXXXXXXXXXXXXXXXXXXXXXXXXXXXXXX",
"XXXXXXXXXXXXXXXXXXXXXXXXXXXXXXXXXXXXXXXXXXXXXXXXXXXXXXXXXXXXXXXX",
"XXXXXXXXXXXXXXXXXXXXXXXXXXXXXXXXXXXXXXXXXXXXXXXXXXXXXXXXXXXXXXXX"
};
