/* XPM */
static char *_0fc89bed63a4f75d848550e573a068bIllVIMu1EEUgpEor[] = {
/* columns rows colors chars-per-pixel */
"64 64 12 1 ",
"  c black",
". c #13181F",
"X c #233832",
"o c #411D17",
"O c #396556",
"+ c #385465",
"@ c #4C5D7C",
"# c #426377",
"$ c #84A1D6",
"% c #85A3D8",
"& c #88A1DA",
"* c #CFDBFF",
/* pixels */
"%%%%%%%%%%%%%%%%%%%%%%%%%%%%%%%% %%%%%%%%%%%%%%%%%%%%%%%%%%%%%%%",
"%%%%%%%%%%%%%%%%%%%%%%%%%%%%   X* %%%%%%%%%%%%%%%%%%%%%%%%%%%%%%",
"%%%%%%%%%%%%%%%%%%%%%%%%%%% ** ** %%%%%%%%%%%%%%%%%%%%%%%%%%%%%%",
"%%%%%%%%%%%%%%%%%%%%%%%%%%%%  ***X %%%%%%%%%%%%%%%%%%%%%%%%%%%%%",
"%%%%%%%%%%%%%%%%%%%%%%%%%%% ****X* %%%%%%%%%%%%%%%%%%%%%%%%%%%%%",
"%%%%%%%%%%%%%%%%%%%%%%%%%% *****X** %%%%%%%%%%%%%%%%%%%%%%%%%%%%",
"%%%%%%%%%%%%%%%%%%%%%%%   **********   %%%%%%%%%%%%%%%%%%%%%%%%%",
"%%%%%%%%%%%%%%%%%%%    %%%******%%**%XX       %%%%%%%%%%%%%%%%%%",
"%%%%%%%%%%%%%%%%%% **%+%%***%%**%%***%X%+++%**  %%%%%%%%%%%%%%%%",
"%%%%%%%%%%%%%%%%%%% %#%+%**%%%**%%%*%%%X+%++% %%%%%%%%%%%%%%%%%%",
"%%%%%%%%%%%%%%%%   X##%%%%%%%%%*%%O%%%%%+++% %%%%%%%%%%%%%%%%%%%",
"%%%%%%%%%%%%%%%%   X##%%%%%%%%%*%%O%%%%%+++% %%%%%%%%%%%%%%%%%%%",
"%%%%%%%%%%%%%%  *%O%#%#%O%%%%%%%%%%X%%%%%    %%%%%%%%%%%%%%%%%%%",
"%%%%%%%%%%%%% X***%#####XO%%%%%%%%%OO%#%##%+% %%%%%%%%%%%%%%%%%%",
"%%%%%%%%%%%%%%   %%##XXX#%#%%%%#%%%%X######%%*   %%%%%%%%%%%%%%%",
"%%%%%%%%%%%%%%%%%   XX#####%#####%%##X####%+**** %%%%%%%%%%%%%%%",
"%%%%%%%%%%%%%%%%%%%% %X%%##########%##XX#%%**   %%%%%%%%%%%%%%%%",
"%%%%%%%%%%%%%%%%%%% XX*%%###XX##X####%X%XXX  %%%%%%%%%%%%%%%%%%%",
"%%%%%%%%%%%%%%%%%% XXX*%%##XXX%X#####%XX*XXXX%%%%%%%%%%%%%%%%%%%",
"%%%%%%%%%%%%%%%%  XXXXX*O%XXXX%XX#%%%XXXXXXX%   %%%%%%%%%%%%%%%%",
"%%%%%%%%%%%%%   ##XXXXXXXXXXXXXXXXO**XXXXX###%OO   %%%%%%%%%%%%%",
"%%%%%%%%%%   %#####XXXXXXXXXXXXXXXXX*XXXX#####%%%**  %%%%%%%%%%%",
"%%%%%%%%% ***%%#%#XX##XXXXXX##XXXXXXXXX#######XXO%** %%%%%%%%%%%",
"%%%%%%%%%% ***%%#######X#XXX###XXX#XXX#######%OOXX  %%%%%%%%%%%%",
"%%%%%%%%%%%   *OX#####XX##X#####X###XX######%O%%X %%%%%%%%%%%%%%",
"%%%%%%%%%%%%%%  ######X##X######X####XX######%%%*O   %%%%%%%%%%%",
"%%%%%%%%%%%%% OX%######################X######%%**** %%%%%%%%%%%",
"%%%%%%%%%    O*%%%##########################%####*O %%%%%%%%%%%%",
"%%%%%%%%%    O*%%%##########################%####*O %%%%%%%%%%%%",
"%%%%%%%%% O****%%##########################%OXXX#X %%%%%%%%%%%%%",
"%%%%%%%%%% XXO*###X#######################%%*XXXXX  %%%%%%%%%%%%",
"%%%%%%%%%%%   XX%XO%#X###%############%#X###**XXX %%%%%%%%%%%%%%",
"%%%%%%%%%%%%% XXXX%OX###%O%#%%######%%%%OXX%*OXXXX  %%%%%%%%%%%%",
"%%%%%X %%%   #XXO*XXX%%XO%%%###%#%##%%***OXOO%OOXXXX  %%  X%%%%%",
"%%%%% *   X%%#XXXXXX*%XX%%%%%%%%%%X#%**O**XXXX%%%XXOX%  %* %%%%%",
"%%%%%% **%%####XXXX**XX***%%%%O%%*X%O**OO*OXXXXXXXXX##%%% %%%%%%",
"%%%%  *O%%#####XX#XXXX*XX*****OX**X%OOOXXX*XXXXXXXXXX##%   %%%%%",
"%%% X*%%%%####X###XXXXXXX***OOXXX*X**XXXXXXXXXXXXX######%O* %%%%",
"%%% **%%%########XXXXXXX*XX*OOXXX*X*X*XXXXXXXX#########%%*O %%%%",
"%%%% XXOO*#XX####XXXXXXXXXXX**XXXXXXXXXXXXXXXXXXX#######%* %%%%%",
"%%%%%%  *  ######XXXXXXXXXXXXXXXXXXXXXXXXXXXXXXXXXXXX##%XO %%%%%",
"%%%%%%%%  #######XXXX#XXXXXXXXXXXXXXXXXXXXXXOXXXXX####%%* %%%%%%",
"%%%%%%%  %######XX####XXXXXXXXXXXXXXXXXXXXX#X########%O% %%%%%%%",
"%%%%%% *%#############XXXXX#XXXXXXXXX##XXXX########%%%%O*   %%%%",
"%%%%  **%%%##%########XXX###XXXXXXX#X###XXXX######%O%***O** %%%%",
"%%%%  **%%%##%########XXX###XXXXXXX#X###XXXX######%O%***O** %%%%",
"%%%% ****%%%%#####%##X######XXXXXX###X####XXX#%%#%O%O***XO %%%%%",
"%%%%% OX***%%%# %%############XXX############%%%%%%OOOXOO %%%%%%",
"%%%%%%  *XOXXX %%O%%##########XX############%%%%%%%**OO  %%%%%%%",
"%%%%%%%%  *   %%%%%%%#########X###########X##%%%%%**   %%%%%%%%%",
"%%%%%%%%% XXX O%%%%%%%##################%#X#%%%%%***O %%%%%%%%%%",
"%%%%%%%% XXXX ***%%%%OX#%#%############%%%OXOO*******O %%%%%%%%%",
"%%%%%%%  X   *****%%O%X%%%##########%#%O%%% OXOO****XO %%%%%%%%%",
"%%%%%%%%%    ***O*O%%XO%%%#%##%####%%%%%O%****OOXO    %%%%%%%%%%",
"%%%%%%%%%% OO**O*** X ****%OXX%%%%%O%%%%**** *** XX %%%%%%%%%%%%",
"%%%%%%%%%% OOXOOO  XX *****OXX%%%**X********O   X  %%%%%%%%%%%%%",
"%%%%%%%%%%       XXXXX XOX**XX**********O**O*O   %%%%%%%%%%%%%%%",
"%%%%%%%%%%%%%%%%%%  XXX   OX  ****X** XOXOXO  %%%%%%%%%%%%%%%%%%",
"%%%%%%%%%%%%%%%%%%%%   XXX    *OX* X*XXXX   %%%%%%%%%%%%%%%%%%%%",
"%%%%%%%%%%%%%%%%%%%%%%%           o      %%%%%%%%%%%%%%%%%%%%%%%",
"%%%%%%%%%%%%%%%%%%%%%%%%%%% oooooooo %%%%%%%%%%%%%%%%%%%%%%%%%%%",
"%%%%%%%%%%%%%%%%%%%%%%%%%%%%  ooooo %%%%%%%%%%%%%%%%%%%%%%%%%%%%",
"%%%%%%%%%%%%%%%%%%%%%%%%%%%%%&&...%$$$$$$$$$$$$$$$$$$$$$$$$$$$$$",
"%%%&&&&&&&&&&&&&&&&&&&&&&&&&%%%@@@&&&&&&&&&&&&&&&&&&&&&&&&&&&&&&"
};
